<?xml version="1.0" encoding="utf-8"?>
<!-- Generator: Adobe Illustrator 21.1.0, SVG Export Plug-In . SVG Version: 6.00 Build 0)  -->
<svg version="1.1" id="Layer_1" xmlns="http://www.w3.org/2000/svg" xmlns:xlink="http://www.w3.org/1999/xlink" x="0px" y="0px"
	 viewBox="0 0 300 300" style="enable-background:new 0 0 300 300;" xml:space="preserve">
<style type="text/css">
	.st0{fill:#E6E6E6;}
	.st1{fill:#B3B3B3;}
</style>
<g>
	<g>
		<circle class="st0" cx="150" cy="150" r="130"/>
	</g>
	<g>
		<g id="Image">
			<g>
				<path class="st1" d="M185.6,111.9h-71.3c-9.2,0-16.8,7.2-16.8,16.1v44.1c0,8.9,7.5,16,16.8,16h71.3c9.2,0,16.8-7.2,16.8-16
					v-44.1C202.4,119.1,194.9,111.9,185.6,111.9z M191.2,160.1l-15.3-19.5c-1-1.3-2.7-2.1-4.4-2.1c-1.8,0-3.4,0.7-4.5,2.1
					l-16.7,20.4l-5.6-3.9c-1.3-0.9-2.9-1.2-4.4-0.9c-1.5,0.3-2.9,1.2-3.7,2.5l-12,18.8h-10.4c-3.1,0-5.6-2.4-5.6-5.3v-44.1
					c0-3,2.5-5.4,5.6-5.4h71.3c3.1,0,5.6,2.4,5.6,5.4L191.2,160.1L191.2,160.1z M127.9,131.3c-5,0-9.1,3.9-9.1,8.7s4.1,8.7,9.1,8.7
					c5,0,9.1-3.9,9.1-8.7C137,135.2,132.9,131.3,127.9,131.3z"/>
			</g>
		</g>
	</g>
</g>
</svg>
