<?xml version="1.0" encoding="utf-8"?>
<!-- Generator: Adobe Illustrator 21.1.0, SVG Export Plug-In . SVG Version: 6.00 Build 0)  -->
<svg version="1.1" id="Layer_1" xmlns="http://www.w3.org/2000/svg" xmlns:xlink="http://www.w3.org/1999/xlink" x="0px" y="0px"
	 viewBox="0 0 125 27" style="enable-background:new 0 0 125 27;" xml:space="preserve">
<style type="text/css">
	.st0{fill:url(#SVGID_1_);}
	.st1{fill:#048D9B;}
</style>
<g>
	<g>
		<path d="M14.1,6.2v0.9h-8v6.2h6.7v0.9H6.1v6.4h8l0,0.9H5V6.2H14.1z"/>
		<path d="M15.5,6.2h0.9c0.1,0,0.2,0,0.2,0.1c0.1,0.1,0.1,0.1,0.2,0.2L22,19.1c0.1,0.2,0.1,0.3,0.2,0.5c0.1,0.2,0.1,0.4,0.2,0.5
			c0-0.2,0.1-0.4,0.1-0.5c0.1-0.2,0.1-0.3,0.2-0.5l5.2-12.6c0-0.1,0.1-0.1,0.2-0.2c0.1-0.1,0.2-0.1,0.3-0.1h0.9l-6.3,15.2h-1
			L15.5,6.2z"/>
		<path d="M40.7,6.2v0.9h-8v6.2h6.7v0.9h-6.7v6.4h8l0,0.9h-9.1V6.2H40.7z"/>
		<path d="M44.9,6.2c0.1,0,0.1,0.1,0.2,0.2l9.9,13.2c0-0.2,0-0.4,0-0.6V6.2h1v15.2h-0.5c-0.1,0-0.2,0-0.2,0c-0.1,0-0.1-0.1-0.2-0.2
			L45,8c0,0.2,0,0.4,0,0.6v12.8h-1V6.2h0.5C44.7,6.2,44.8,6.2,44.9,6.2z"/>
		<path d="M70.2,6.2v0.9h-5.3v14.3h-1.1V7.1h-5.4V6.2H70.2z"/>
		<path d="M78.6,15.7c0,0.9-0.1,1.7-0.3,2.4c-0.2,0.7-0.5,1.3-1,1.8c-0.4,0.5-1,0.9-1.7,1.2c-0.7,0.3-1.5,0.4-2.4,0.4
			c-0.4,0-0.8,0-1.2-0.1s-0.8-0.1-1.2-0.2l0.2-2.1c0-0.2,0.1-0.3,0.2-0.5c0.1-0.1,0.3-0.2,0.5-0.2c0.1,0,0.3,0,0.5,0.1
			c0.2,0,0.4,0.1,0.6,0.1c0.4,0,0.7,0,0.9-0.1c0.3-0.1,0.5-0.3,0.7-0.5c0.2-0.2,0.3-0.5,0.4-0.9c0.1-0.4,0.1-0.8,0.1-1.4V5.7h3.6
			V15.7z"/>
		<path d="M103.3,21.4h-3.7V5.7h3.7V21.4z"/>
		<path d="M108.6,5.7c0.1,0,0.2,0,0.3,0.1c0.1,0,0.2,0.1,0.2,0.2c0.1,0.1,0.2,0.2,0.3,0.3l7.4,9.4c0-0.3-0.1-0.6-0.1-0.9
			c0-0.3,0-0.6,0-0.8V5.7h3.2v15.7h-1.9c-0.3,0-0.5,0-0.7-0.1c-0.2-0.1-0.4-0.2-0.6-0.5l-7.4-9.3c0,0.3,0,0.5,0.1,0.8
			c0,0.3,0,0.5,0,0.7v8.4h-3.2V5.7h1.9C108.4,5.7,108.5,5.7,108.6,5.7z"/>
	</g>
	<g>
		<g>
			<linearGradient id="SVGID_1_" gradientUnits="userSpaceOnUse" x1="83.488" y1="19.3625" x2="95.2131" y2="7.6375">
				<stop  offset="0" style="stop-color:#15D8E3"/>
				<stop  offset="1" style="stop-color:#30C0EE"/>
			</linearGradient>
			<path class="st0" d="M89.4,5.2c-4.6,0-8.3,3.7-8.3,8.3s3.7,8.3,8.3,8.3c4.6,0,8.3-3.7,8.3-8.3S93.9,5.2,89.4,5.2z"/>
		</g>
		<g>
			<path class="st1" d="M89.4,7.7c-3.2,0-5.8,2.5-5.9,5.7c0,3.2,2.5,5.8,5.7,5.9s5.8-2.5,5.9-5.7C95.2,10.4,92.6,7.8,89.4,7.7z"/>
		</g>
	</g>
</g>
</svg>
