<?xml version="1.0" encoding="utf-8"?>
<!-- Generator: Adobe Illustrator 21.1.0, SVG Export Plug-In . SVG Version: 6.00 Build 0)  -->
<svg version="1.1" id="Layer_1" xmlns="http://www.w3.org/2000/svg" xmlns:xlink="http://www.w3.org/1999/xlink" x="0px" y="0px"
	 viewBox="0 0 99 27" style="enable-background:new 0 0 99 27;" xml:space="preserve">
<style type="text/css">
	.st0{fill:#FFFFFF;}
	.st1{fill:#1A95E9;}
	.st2{fill:#0076AA;}
</style>
<g>
	<g>
		<path d="M8.2,8.1c0.7,0,1.3,0.1,1.9,0.3c0.6,0.2,1.1,0.6,1.5,1c0.4,0.4,0.8,1,1,1.6c0.2,0.6,0.4,1.4,0.4,2.2c0,0.2,0,0.3-0.1,0.4
			s-0.1,0.1-0.2,0.1H3.9V14c0,0.9,0.1,1.7,0.3,2.4c0.2,0.7,0.5,1.2,0.9,1.7c0.4,0.5,0.8,0.8,1.4,1c0.5,0.2,1.1,0.3,1.8,0.3
			c0.6,0,1.1-0.1,1.6-0.2c0.4-0.1,0.8-0.3,1.1-0.4c0.3-0.2,0.5-0.3,0.7-0.4c0.2-0.1,0.3-0.2,0.4-0.2c0.1,0,0.2,0,0.2,0.1l0.3,0.4
			c-0.2,0.2-0.4,0.5-0.8,0.7c-0.3,0.2-0.7,0.4-1.1,0.5c-0.4,0.1-0.8,0.3-1.2,0.4c-0.4,0.1-0.9,0.1-1.3,0.1c-0.8,0-1.6-0.1-2.2-0.4
			c-0.7-0.3-1.2-0.7-1.7-1.2s-0.8-1.2-1.1-2C2.9,15.9,2.8,15,2.8,14c0-0.9,0.1-1.6,0.4-2.4s0.6-1.3,1.1-1.9c0.5-0.5,1-0.9,1.7-1.2
			C6.6,8.3,7.3,8.1,8.2,8.1z M8.2,9C7.6,9,7,9.1,6.5,9.3C6,9.4,5.6,9.7,5.3,10.1c-0.4,0.4-0.6,0.8-0.9,1.3C4.2,11.9,4,12.4,4,13.1
			h7.9c0-0.6-0.1-1.2-0.3-1.7c-0.2-0.5-0.4-0.9-0.8-1.3s-0.7-0.6-1.2-0.8C9.2,9.1,8.7,9,8.2,9z"/>
		<path d="M20.3,20.2h-1l-5-11.9h0.9c0.1,0,0.2,0,0.3,0.1c0.1,0.1,0.1,0.1,0.1,0.2l3.9,9.4c0.1,0.3,0.2,0.7,0.3,1
			c0.1-0.3,0.2-0.7,0.3-1l3.9-9.4c0-0.1,0.1-0.2,0.2-0.2c0.1-0.1,0.2-0.1,0.2-0.1h0.9L20.3,20.2z"/>
		<path d="M32.2,8.1c0.7,0,1.3,0.1,1.9,0.3c0.6,0.2,1.1,0.6,1.5,1c0.4,0.4,0.8,1,1,1.6c0.2,0.6,0.4,1.4,0.4,2.2c0,0.2,0,0.3-0.1,0.4
			s-0.1,0.1-0.2,0.1h-8.7V14c0,0.9,0.1,1.7,0.3,2.4c0.2,0.7,0.5,1.2,0.9,1.7c0.4,0.5,0.8,0.8,1.4,1c0.5,0.2,1.1,0.3,1.8,0.3
			c0.6,0,1.1-0.1,1.6-0.2c0.4-0.1,0.8-0.3,1.1-0.4c0.3-0.2,0.5-0.3,0.7-0.4c0.2-0.1,0.3-0.2,0.4-0.2c0.1,0,0.2,0,0.2,0.1l0.3,0.4
			c-0.2,0.2-0.4,0.5-0.8,0.7c-0.3,0.2-0.7,0.4-1.1,0.5c-0.4,0.1-0.8,0.3-1.2,0.4c-0.4,0.1-0.9,0.1-1.3,0.1c-0.8,0-1.6-0.1-2.2-0.4
			c-0.7-0.3-1.2-0.7-1.7-1.2s-0.8-1.2-1.1-2c-0.3-0.8-0.4-1.7-0.4-2.7c0-0.9,0.1-1.6,0.4-2.4s0.6-1.3,1.1-1.9c0.5-0.5,1-0.9,1.7-1.2
			C30.6,8.3,31.3,8.1,32.2,8.1z M32.2,9c-0.6,0-1.2,0.1-1.7,0.3c-0.5,0.2-0.9,0.5-1.3,0.8c-0.4,0.4-0.6,0.8-0.9,1.3
			c-0.2,0.5-0.4,1.1-0.4,1.7h7.9c0-0.6-0.1-1.2-0.3-1.7c-0.2-0.5-0.4-0.9-0.8-1.3s-0.7-0.6-1.2-0.8C33.2,9.1,32.7,9,32.2,9z"/>
		<path d="M40,20.2V8.3h0.6c0.2,0,0.3,0.1,0.3,0.3l0.1,1.8c0.6-0.7,1.2-1.2,1.9-1.7c0.7-0.4,1.5-0.6,2.4-0.6c0.7,0,1.2,0.1,1.7,0.3
			c0.5,0.2,0.9,0.5,1.2,0.9c0.3,0.4,0.6,0.9,0.7,1.4c0.2,0.6,0.3,1.2,0.3,1.9v7.6h-1.1v-7.6c0-1.1-0.3-2-0.8-2.6s-1.3-1-2.3-1
			c-0.8,0-1.5,0.2-2.2,0.6c-0.7,0.4-1.3,0.9-1.8,1.6v9H40z"/>
		<path d="M56.2,20.4c-0.8,0-1.4-0.2-1.9-0.7c-0.5-0.4-0.7-1.1-0.7-2.1V9.5H52c-0.1,0-0.2,0-0.2-0.1c-0.1,0-0.1-0.1-0.1-0.2V8.8
			l2-0.1L54,4.4c0-0.1,0-0.1,0.1-0.2s0.1-0.1,0.2-0.1h0.5v4.5h3.8v0.9h-3.8v8.1c0,0.3,0,0.6,0.1,0.8c0.1,0.2,0.2,0.4,0.3,0.6
			c0.1,0.2,0.3,0.3,0.5,0.3s0.4,0.1,0.6,0.1c0.3,0,0.5,0,0.7-0.1c0.2-0.1,0.4-0.2,0.5-0.3c0.2-0.1,0.3-0.2,0.4-0.3
			c0.1-0.1,0.2-0.1,0.2-0.1c0.1,0,0.1,0,0.2,0.1l0.3,0.5c-0.3,0.3-0.7,0.6-1.2,0.8C57.2,20.3,56.8,20.4,56.2,20.4z"/>
		<path d="M63.8,7.9v12.7c0,0.5-0.1,1-0.2,1.5s-0.4,0.9-0.7,1.2c-0.3,0.4-0.7,0.6-1.2,0.8c-0.5,0.2-1.1,0.3-1.8,0.3
			c-0.3,0-0.5,0-0.8-0.1c-0.2,0-0.5-0.1-0.7-0.2l0.1-1.6c0-0.2,0.1-0.3,0.2-0.3c0.1,0,0.3-0.1,0.6-0.1s0.5,0,0.7-0.1
			c0.2-0.1,0.4-0.2,0.5-0.3c0.1-0.1,0.2-0.3,0.3-0.5s0.1-0.5,0.1-0.8V7.9H63.8z M64.2,4.4c0,0.3-0.1,0.5-0.2,0.7
			c-0.1,0.2-0.2,0.4-0.4,0.6C63.4,5.8,63.2,6,63,6.1c-0.2,0.1-0.5,0.1-0.7,0.1c-0.3,0-0.5,0-0.7-0.1c-0.2-0.1-0.4-0.2-0.6-0.4
			c-0.2-0.2-0.3-0.4-0.4-0.6c-0.1-0.2-0.2-0.5-0.2-0.7c0-0.3,0-0.5,0.2-0.7c0.1-0.2,0.2-0.4,0.4-0.6c0.2-0.2,0.4-0.3,0.6-0.4
			c0.2-0.1,0.5-0.1,0.7-0.1c0.3,0,0.5,0.1,0.7,0.1s0.4,0.2,0.6,0.4c0.2,0.2,0.3,0.4,0.4,0.6C64.1,3.9,64.2,4.1,64.2,4.4z"/>
		<path d="M82.9,4.4c0,0.3-0.1,0.5-0.2,0.7c-0.1,0.2-0.2,0.4-0.4,0.6C82.2,5.8,82,6,81.7,6.1c-0.2,0.1-0.5,0.1-0.7,0.1
			c-0.3,0-0.5,0-0.7-0.1C80,6,79.8,5.8,79.7,5.7c-0.2-0.2-0.3-0.4-0.4-0.6c-0.1-0.2-0.2-0.5-0.2-0.7c0-0.3,0-0.5,0.2-0.7
			c0.1-0.2,0.2-0.4,0.4-0.6c0.2-0.2,0.4-0.3,0.6-0.4s0.5-0.1,0.7-0.1c0.3,0,0.5,0.1,0.7,0.1s0.4,0.2,0.6,0.4
			c0.2,0.2,0.3,0.4,0.4,0.6C82.8,3.9,82.9,4.1,82.9,4.4z M82.5,7.9v12.3h-3V7.9H82.5z"/>
		<path d="M85.5,20.2V7.9h1.8c0.4,0,0.6,0.2,0.8,0.5l0.2,1c0.2-0.3,0.5-0.5,0.8-0.7c0.3-0.2,0.6-0.4,0.9-0.5c0.3-0.2,0.6-0.3,1-0.3
			c0.4-0.1,0.7-0.1,1.1-0.1c0.7,0,1.3,0.1,1.8,0.3c0.5,0.2,1,0.5,1.3,1c0.3,0.4,0.6,0.9,0.8,1.5s0.3,1.2,0.3,1.9v7.8h-3v-7.8
			c0-0.8-0.2-1.3-0.5-1.7c-0.3-0.4-0.9-0.6-1.6-0.6c-0.5,0-1,0.1-1.4,0.3c-0.4,0.2-0.9,0.5-1.3,0.9v8.9H85.5z"/>
	</g>
	<g>
		<g>
			<path class="st1" d="M71.6,7.8c-3.3,0-6.1,2.7-6.1,6.1s2.7,6.1,6.1,6.1c3.3,0,6.1-2.7,6.1-6.1S75,7.8,71.6,7.8z"/>
		</g>
		<g>
			<path class="st2" d="M71.7,9.7c-2.3,0-4.2,1.8-4.3,4.2c0,2.3,1.8,4.2,4.2,4.3c2.3,0,4.2-1.8,4.3-4.2C75.9,11.6,74,9.7,71.7,9.7z"
				/>
		</g>
	</g>
</g>
</svg>
