<?xml version="1.0" encoding="utf-8"?>
<!-- Generator: Adobe Illustrator 21.1.0, SVG Export Plug-In . SVG Version: 6.00 Build 0)  -->
<svg version="1.1" id="Layer_1" xmlns="http://www.w3.org/2000/svg" xmlns:xlink="http://www.w3.org/1999/xlink" x="0px" y="0px"
	 viewBox="0 0 129 27" style="enable-background:new 0 0 129 27;" xml:space="preserve">
<style type="text/css">
	.st0{fill:#FFFFFF;}
	.st1{fill:#1A95E9;}
	.st2{fill:#0076AA;}
</style>
<g>
	<g>
		<path d="M15.9,6.9v0.9H7.8V14h6.7v0.9H7.8v6.4h8.1l0,0.9H6.7V6.9H15.9z"/>
		<path d="M17.2,6.9h0.9c0.1,0,0.2,0,0.2,0.1c0.1,0.1,0.1,0.1,0.2,0.2l5.2,12.7c0.1,0.2,0.1,0.3,0.2,0.5c0.1,0.2,0.1,0.4,0.2,0.6
			c0-0.2,0.1-0.4,0.1-0.6c0.1-0.2,0.1-0.3,0.2-0.5l5.2-12.7c0-0.1,0.1-0.1,0.2-0.2c0.1-0.1,0.2-0.1,0.3-0.1h0.9l-6.3,15.3h-1
			L17.2,6.9z"/>
		<path d="M42.6,6.9v0.9h-8.1V14h6.7v0.9h-6.7v6.4h8.1l0,0.9h-9.2V6.9H42.6z"/>
		<path d="M46.8,7c0.1,0,0.1,0.1,0.2,0.2l9.9,13.3c0-0.2,0-0.4,0-0.6V6.9h1v15.3h-0.5c-0.1,0-0.2,0-0.2,0c-0.1,0-0.1-0.1-0.2-0.2
			L46.9,8.7c0,0.2,0,0.4,0,0.6v12.9h-1V6.9h0.6C46.6,6.9,46.7,6.9,46.8,7z"/>
		<path d="M72.3,6.9v0.9h-5.4v14.4h-1.1V7.9h-5.4V6.9H72.3z"/>
		<path d="M80.7,16.5c0,0.9-0.1,1.7-0.3,2.4c-0.2,0.7-0.6,1.3-1,1.9c-0.4,0.5-1,0.9-1.7,1.2s-1.5,0.4-2.4,0.4c-0.4,0-0.8,0-1.2-0.1
			c-0.4,0-0.8-0.1-1.2-0.2L73,20c0-0.2,0.1-0.3,0.2-0.5c0.1-0.1,0.3-0.2,0.6-0.2c0.1,0,0.3,0,0.5,0.1c0.2,0,0.4,0.1,0.6,0.1
			c0.4,0,0.7,0,0.9-0.1c0.3-0.1,0.5-0.3,0.7-0.5c0.2-0.2,0.3-0.5,0.4-0.9c0.1-0.4,0.1-0.8,0.1-1.4V6.5h3.7V16.5z"/>
		<path d="M105.5,22.2h-3.7V6.5h3.7V22.2z"/>
		<path d="M110.9,6.5c0.1,0,0.2,0,0.3,0.1c0.1,0,0.2,0.1,0.2,0.2c0.1,0.1,0.2,0.2,0.3,0.3l7.5,9.5c0-0.3-0.1-0.6-0.1-0.9
			c0-0.3,0-0.6,0-0.8V6.5h3.2v15.8h-1.9c-0.3,0-0.5,0-0.7-0.1s-0.4-0.2-0.6-0.5l-7.4-9.4c0,0.3,0,0.5,0.1,0.8c0,0.3,0,0.5,0,0.7v8.5
			h-3.2V6.5h1.9C110.6,6.5,110.8,6.5,110.9,6.5z"/>
	</g>
	<g>
		<g>
			<path class="st1" d="M91.3,6.4c-4.5,0-8.1,3.6-8.1,8.1s3.6,8.1,8.1,8.1s8.1-3.6,8.1-8.1S95.8,6.4,91.3,6.4z"/>
		</g>
		<g>
			<path class="st2" d="M91.4,8.8c-3.1,0-5.7,2.5-5.8,5.6c0,3.1,2.5,5.7,5.6,5.8s5.7-2.5,5.8-5.6S94.5,8.9,91.4,8.8z"/>
		</g>
	</g>
</g>
</svg>
